<!-- Created with Inkscape (http://www.inkscape.org/) -->
<svg id="svg2" xmlns:rdf="http://www.w3.org/1999/02/22-rdf-syntax-ns#" xmlns="http://www.w3.org/2000/svg" viewBox="0 0 749.55 204.67" version="1.1" xmlns:cc="http://creativecommons.org/ns#" xmlns:dc="http://purl.org/dc/elements/1.1/">
 <defs id="defs4">
  <marker id="Arrow1Mstart" style="overflow:visible" refY="0.0" refX="0.0" orient="auto">
   <path id="path6249" d="M0,0l5-5-17.5,5,17.5,5-5-5z" fill-rule="evenodd" transform="scale(0.4) translate(10,0)" stroke="#000" stroke-width="1.0pt"/>
  </marker>
  <marker id="Arrow1Mend" style="overflow:visible" refY="0" refX="0" orient="auto">
   <path id="path3772" d="M0,0,5-5-12.5,0,5,5,0,0z" fill-rule="evenodd" transform="matrix(-0.4,0,0,-0.4,-4,0)" stroke="#000" stroke-width="1pt"/>
  </marker>
 </defs>
 <metadata id="metadata7">
  <rdf:RDF>
   <cc:Work rdf:about="">
    <dc:format>image/svg+xml</dc:format>
    <dc:type rdf:resource="http://purl.org/dc/dcmitype/StillImage"/>
    <dc:title/>
   </cc:Work>
  </rdf:RDF>
 </metadata>
 <g id="layer1" transform="translate(-0.94139723,-259.1875)">
  <path id="path2989" stroke-linejoin="miter" style="marker-end:none;marker-start:none;marker-mid:none;" d="m16.449,448.35,302.54,0c81.01-35.99,189.09-40.06,151.27-120.17-34.216-85.833-109.85-85.833-151.27,0-35.41,78.64,87.645,100,151.27,120.17h264.72" stroke-dashoffset="66.16401244" stroke="#000" stroke-linecap="butt" stroke-miterlimit="4" stroke-dasharray="9.73,19.46" stroke-width="9.73" fill="none"/>
  <path id="path4576" d="m382.49,7.7568c-1.5369-5.9158-1.6207-5.7373,3.0415-6.4766,2.3362-0.37047,4.4327-0.48849,4.6589-0.26226,0.22623,0.22623,0.6035,2.2733,0.83837,4.549,0.41709,4.0412,0.38374,4.1377-1.4294,4.1377-1.021,0-2.8718,0.20306-4.1127,0.45125-2.1227,0.42454-2.3001,0.28258-2.9968-2.3991z" transform="translate(0.94139723,259.1875)" stroke-miterlimit="4" stroke-width="0" fill="#F00"/>
  <path id="path4578" d="m413.33,12.047-3.3807-1.2346,1.0409-4.0577c0.57247-2.2317,1.124-4.1408,1.2255-4.2424,0.30666-0.30666,7.3963,2.1749,8.1344,2.8472,0.67798,0.61755-2.3327,8.0969-3.2119,7.9793-0.2351-0.03147-1.9488-0.61278-3.8082-1.2918z" transform="translate(0.94139723,259.1875)" stroke-miterlimit="4" stroke-width="0" fill="#F00"/>
  <path id="path4580" d="m436.69,26.354-2.9068-2.4877,2.5377-3.3672c1.3957-1.852,2.7038-3.3634,2.9068-3.3586s1.8567,1.3146,3.6749,2.9107l3.3058,2.902-2.902,2.9719c-1.5961,1.6346-3.0838,2.9595-3.3058,2.9442-0.22211-0.01524-1.7119-1.1472-3.3106-2.5154z" transform="translate(0.94139723,259.1875)" stroke-miterlimit="4" stroke-width="0" fill="#F00"/>
  <path id="path4584" d="m454.08,48.118-2.2354-3.633,3.7381-2.3001c2.056-1.265,3.8233-2.1978,3.9275-2.0729,1.0088,1.2103,4.0789,6.6391,4.0789,7.2128,0,0.40723-1.6366,1.5697-3.6368,2.5833l-3.6368,1.8429-2.2354-3.633z" transform="translate(0.94139723,259.1875)" stroke-miterlimit="4" stroke-width="0" fill="#F00"/>
  <path id="path4586" d="m466.6,73.893c-0.89919-2.0902-1.5219-3.9134-1.3839-4.0515,0.29941-0.29941,7.2357-3.2965,7.6292-3.2965,0.42752,0,3.2952,6.7252,3.2952,7.7279,0,0.49312-1.3633,1.305-3.0296,1.8043-1.6662,0.49922-3.445,1.0671-3.9528,1.262-0.56366,0.2163-1.56-1.1259-2.5582-3.4461z" transform="translate(0.94139723,259.1875)" stroke-miterlimit="4" stroke-width="0" fill="#F00"/>
  <path id="path4588" d="m477.98,105.17c-5.5626-0.69416-5.5364-0.67023-5.5364-5.0529v-4.0459l2.7682-0.01008c1.5225-0.0055,3.5156-0.21038,4.4291-0.45518,1.6085-0.43107,1.6609-0.27944,1.6609,4.8082,0,2.8894-0.24914,5.2036-0.55364,5.1428s-1.5502-0.23496-2.7682-0.38696z" transform="translate(0.94139723,259.1875)" stroke-miterlimit="4" stroke-width="0" fill="#F00"/>
  <path id="path4590" d="m462.74,129.82-2.6387-3.1567,2.3761-2.7487c1.3068-1.5118,2.6099-2.7487,2.8958-2.7487,0.28583,0,1.9454,1.0886,3.6879,2.4191l3.1682,2.4191-3.0678,3.4864c-1.6873,1.9175-3.2287,3.4864-3.4252,3.4864-0.19656,0-1.5448-1.4205-2.9961-3.1567z" transform="translate(0.94139723,259.1875)" stroke-miterlimit="4" stroke-width="0" fill="#F00"/>
  <path id="path4592" d="m439.33,147.93c-0.37616-0.7105-1.1802-2.487-1.7868-3.9477l-1.1029-2.6559,3.8546-1.8905,3.8546-1.8905,1.9549,3.986,1.9549,3.986-3.655,1.8522c-4.3505,2.2046-4.2119,2.1893-5.0743,0.56034z" transform="translate(0.94139723,259.1875)" stroke-miterlimit="4" stroke-width="0" fill="#F00"/>
  <path id="path4594" d="m412.27,159.37c-1.665-4.6052-2.4567-7.1973-2.1983-7.1973,0.16996,0,1.9985-0.66594,4.0634-1.4799l3.7544-1.4799,1.0209,2.4435c2.3528,5.631,2.2766,5.9804-1.6072,7.3725-4.2237,1.5139-4.6001,1.5394-5.0334,0.34104z" transform="translate(0.94139723,259.1875)" stroke-miterlimit="4" stroke-width="0" fill="#0F0"/>
  <path id="path4596" d="m358.23,22.05c-0.3796-0.49693-1.5936-2.1209-2.6978-3.6089l-2.0076-2.7054,3.31-2.2773c1.8205-1.2525,3.6514-2.2773,4.0686-2.2773,1.1187,0,4.8203,6.6486,4.0569,7.2868-3.8288,3.2014-6.0982,4.4093-6.7301,3.5821z" transform="translate(0.94139723,259.1875)" stroke-miterlimit="4" stroke-width="0" fill="#0F0"/>
  <path id="path4598" d="m335.74,40.001-3.4105-2.7363,2.5794-3.2609c1.4187-1.7935,2.7234-3.4054,2.8993-3.582,0.34688-0.34827,6.2028,5.1593,6.191,5.8227-0.004,0.2221-1.0965,1.7738-2.428,3.4483l-2.4208,3.0444-3.4105-2.7363z" transform="translate(0.94139723,259.1875)" stroke-miterlimit="4" stroke-width="0" fill="#0F0"/>
  <path id="path4600" d="m320.2,64.651c-1.9285-1.0039-3.5064-1.996-3.5064-2.2047,0-0.20872,0.8471-2.0512,1.8824-4.0943l1.8824-3.7148,3.4694,2.0019c1.9082,1.1011,3.6087,2.1204,3.7791,2.2652,0.40935,0.34788-3.0212,7.6507-3.5732,7.6064-0.2351-0.0189-2.0053-0.85572-3.9338-1.8596z" transform="translate(0.94139723,259.1875)" stroke-miterlimit="4" stroke-width="0" fill="#F00"/>
  <path id="path4602" d="m411.62,156.1c-0.64716-1.8993-1.1767-3.529-1.1767-3.6215,0-0.16267,6.674-2.5215,7.1343-2.5215,0.41367,0,2.462,5.3266,2.462,6.4024,0,1.0484-4.1524,3.194-6.1814,3.194-0.60436,0-1.5684-1.4873-2.2382-3.4533z" transform="translate(0.94139723,259.1875)" stroke-miterlimit="4" stroke-width="0" fill="#F00"/>
  <path id="path4604" d="m320.2,64.168c-1.5225-0.88247-2.7682-1.8846-2.7682-2.227,0-0.89543,2.9079-6.4691,3.3751-6.4691,0.21581,0,1.7132,0.74741,3.3275,1.6609,2.5032,1.4165,2.8704,1.9325,2.4953,3.5064-0.51222,2.1495-2.3479,5.1749-3.125,5.1503-0.29514-0.0093-1.7823-0.73898-3.3048-1.6215z" transform="translate(0.94139723,259.1875)" stroke-miterlimit="4" stroke-width="0" fill="#0F0"/>
  <path id="path4606" d="m311.98,92.526-4.3434-0.22433,0.40329-4.4476c0.22182-2.4462,0.51546-4.5542,0.65256-4.6845,0.13709-0.13028,2.1583,0.0949,4.4917,0.50041l4.2424,0.73729-0.46949,4.1715c-0.25822,2.2943-0.5064,4.1715-0.55151,4.1715-0.0451,0-2.0366-0.10095-4.4255-0.22434z" transform="translate(0.94139723,259.1875)" stroke-miterlimit="4" stroke-width="0" fill="#0F0"/>
  <path id="path4608" d="m313.04,118.3-2.1856-4.3296,4.1327-1.5815c2.273-0.86982,4.2098-1.4913,4.3039-1.3811,0.36389,0.426,3.3054,6.4341,3.3054,6.7513,0,0.18435-1.6584,1.3556-3.6854,2.6028l-3.6854,2.2677-2.1856-4.3296z" transform="translate(0.94139723,259.1875)" stroke-miterlimit="4" stroke-width="0" fill="#0F0"/>
  <path id="path4610" d="m333.14,141.61c-1.709-1.2962-3.1207-2.546-3.1373-2.7774-0.0166-0.23142,1.1572-1.8078,2.6082-3.503,2.8649-3.347,3.0639-3.3431,7.2351,0.13997l2.1226,1.7724-2.3426,3.4048c-1.2884,1.8726-2.5758,3.3857-2.8607,3.3624-0.285-0.0233-1.9164-1.103-3.6254-2.3991z" transform="translate(0.94139723,259.1875)" stroke-miterlimit="4" stroke-width="0" fill="#0F0"/>
  <path id="path4612" d="m358.59,156.93-3.4944-1.8192,1.9615-3.9995,1.9615-3.9995,3.7474,1.8818c2.0611,1.035,3.8528,1.9749,3.9816,2.0887,0.40134,0.35457-3.5504,7.7374-4.1221,7.7011-0.29766-0.0189-2.1137-0.85298-4.0356-1.8535z" transform="translate(0.94139723,259.1875)" stroke-miterlimit="4" stroke-width="0" fill="#0F0"/>
  <path id="path4616" d="m413.82,177.58c-1.5935-0.58372-3.036-1.2-3.2056-1.3696-0.16957-0.16957,0.21757-2.1173,0.86031-4.3282l1.1686-4.0199,4.1094,1.197c4.0991,1.194,4.1082,1.2032,3.6496,3.6749-0.71317,3.8436-1.7136,6.0161-2.7441,5.9592-0.51755-0.0286-2.2448-0.52959-3.8382-1.1133z" transform="translate(0.94139723,259.1875)" stroke-miterlimit="4" stroke-width="0" fill="#0F0"/>
  <path id="path4618" d="m442.06,185.87c-1.4893-0.46493-2.916-1.0541-3.1705-1.3092-0.59827-0.59969,1.0515-7.1822,1.9373-7.7297,0.37157-0.22964,2.3478,0.0111,4.3917,0.53488,3.6997,0.94821,3.714,0.96346,3.2454,3.4616-1.159,6.1782-1.6151,6.5373-6.4038,5.0424z" transform="translate(0.94139723,259.1875)" stroke-miterlimit="4" stroke-width="0" fill="#0F0"/>
  <path id="path4620" d="m466.88,192.59c-0.1943-0.5075,0.0784-2.4175,0.60589-4.2445l0.95916-3.3218,3.8464-0.22312,3.8464-0.22312v4.4677,4.4677h-4.4522c-2.8813,0-4.5769-0.32558-4.8055-0.92273z" transform="translate(0.94139723,259.1875)" stroke-miterlimit="4" stroke-width="0" fill="#0F0"/>
  <path id="path4622" d="m496.81,189.08,0-4.4291,4.4291,0,4.4291,0,0,4.4291,0,4.4291-4.4291,0-4.4291,0,0-4.4291z" transform="translate(0.94139723,259.1875)" stroke-miterlimit="4" stroke-width="0" fill="#0F0"/>
  <path id="path4624" d="m525.6,189.08,0-4.4291,4.4291,0,4.4291,0,0,4.4291,0,4.4291-4.4291,0-4.4291,0,0-4.4291z" transform="translate(0.94139723,259.1875)" stroke-miterlimit="4" stroke-width="0" fill="#0F0"/>
  <path id="path4626" d="m555.12,189.08,0-4.4291,4.4291,0,4.4291,0,0,4.4291,0,4.4291-4.4291,0-4.4291,0,0-4.4291z" transform="translate(0.94139723,259.1875)" stroke-miterlimit="4" stroke-width="0" fill="#ff7f2a"/>
  <path id="path4628" d="m583.91,189.08,0-4.4291,4.4291,0,4.4291,0,0,4.4291,0,4.4291-4.4291,0-4.4291,0,0-4.4291z" transform="translate(0.94139723,259.1875)" stroke-miterlimit="4" stroke-width="0" fill="#ff7f2a"/>
  <path id="path4630" d="m613.44,189.08,0-4.4291,4.4291,0,4.4291,0,0,4.4291,0,4.4291-4.4291,0-4.4291,0,0-4.4291z" transform="translate(0.94139723,259.1875)" stroke-miterlimit="4" stroke-width="0" fill="#ff7f2a"/>
  <path id="path4632" d="m642.23,189.08,0-4.4291,4.4291,0,4.4291,0,0,4.4291,0,4.4291-4.4291,0-4.4291,0,0-4.4291z" transform="translate(0.94139723,259.1875)" stroke-miterlimit="4" stroke-width="0" fill="#ff7f2a"/>
  <path id="path4634" d="m671.76,189.08,0-4.4291,4.4291,0,4.4291,0,0,4.4291,0,4.4291-4.4291,0-4.4291,0,0-4.4291z" transform="translate(0.94139723,259.1875)" stroke-miterlimit="4" stroke-width="0" fill="#ff7f2a"/>
  <path id="path4636" d="m700.54,189.08,0-4.4291,4.7982,0,4.7982,0,0,4.4291,0,4.4291-4.7982,0-4.7982,0,0-4.4291z" transform="translate(0.94139723,259.1875)" stroke-miterlimit="4" stroke-width="0" fill="#ff7f2a"/>
  <path id="path4638" d="m730.07,189.08c0-4.2322,0.082-4.4291,1.8454-4.4291s1.8454,0.19685,1.8454,4.4291-0.082,4.4291-1.8454,4.4291-1.8454-0.19685-1.8454-4.4291z" transform="translate(0.94139723,259.1875)" stroke-miterlimit="4" stroke-width="0" fill="#ff7f2a"/>
  <path id="path4644" d="m328.46,184.93c-0.89761-2.2116-1.5056-4.1153-1.351-4.2305,0.15458-0.1152,2.0103-0.9092,4.1238-1.7644l3.8428-1.555,1.535,4.1026c0.84423,2.2564,1.4402,4.1651,1.3245,4.2415-0.11578,0.0764-1.9278,0.83369-4.0268,1.6829l-3.8163,1.544-1.632-4.021z" transform="translate(0.94139723,259.1875)" stroke-miterlimit="4" stroke-width="0" fill="#000080"/>
  <path id="path4646" d="m301.73,193.72c1.3104-0.16307,3.6357-0.16575,5.1673-0.006,1.5316,0.1598,0.45937,0.29322-2.3826,0.29649-2.842,0.003-4.0951-0.12747-2.7846-0.29054z" transform="translate(0.94139723,259.1875)" stroke-miterlimit="4" stroke-width="0" fill="#000080"/>
  <path id="path4648" d="m299.71,189.08,0-4.4291,4.7982,0,4.7982,0,0,4.4291,0,4.4291-4.7982,0-4.7982,0,0-4.4291z" transform="translate(0.94139723,259.1875)" stroke-miterlimit="4" stroke-width="0" fill="#000080"/>
  <path id="path4650" d="m270.92,189.08,0-4.4291,4.4291,0,4.4291,0,0,4.4291,0,4.4291-4.4291,0-4.4291,0,0-4.4291z" transform="translate(0.94139723,259.1875)" stroke-miterlimit="4" stroke-width="0" fill="#000080"/>
  <path id="path4652" d="m241.4,189.08,0-4.4291,4.4291,0,4.4291,0,0,4.4291,0,4.4291-4.4291,0-4.4291,0,0-4.4291z" transform="translate(0.94139723,259.1875)" stroke-miterlimit="4" stroke-width="0" fill="#000080"/>
  <path id="path4654" d="m212.61,189.08,0-4.4291,4.4291,0,4.4291,0,0,4.4291,0,4.4291-4.4291,0-4.4291,0,0-4.4291z" transform="translate(0.94139723,259.1875)" stroke-miterlimit="4" stroke-width="0" fill="#000080"/>
  <path id="path4656" d="m183.08,189.08,0-4.4291,4.4291,0,4.4291,0,0,4.4291,0,4.4291-4.4291,0-4.4291,0,0-4.4291z" transform="translate(0.94139723,259.1875)" stroke-miterlimit="4" stroke-width="0" fill="#000080"/>
  <path id="path4658" d="m413.76,177.11c-2.971-1.0477-2.8641-0.76185-1.856-4.9639,0.84396-3.518,1.0036-3.7001,2.8514-3.2536,5.5556,1.3426,6.0866,2.1494,4.4688,6.7903-0.86519,2.4819-1.7891,2.7232-5.4642,1.4272z" transform="translate(0.94139723,259.1875)" stroke-miterlimit="4" stroke-width="0" fill="#008080"/>
  <path id="path4660" d="m441.26,185.27c-2.2286-0.81397-2.4843-2.0477-1.1923-5.7539,0.80298-2.3035,0.96079-2.3834,3.805-1.9286,1.632,0.26097,3.2481,0.64804,3.5914,0.86017,0.85393,0.52776,0.78266,2.576-0.18635,5.3557-0.87395,2.507-2.2507,2.8426-6.0178,1.4667z" transform="translate(0.94139723,259.1875)" stroke-miterlimit="4" stroke-width="0" fill="#008080"/>
  <path id="path4662" d="m469.68,192.98c-2.657-0.32973-2.9591-1.3302-1.5887-5.2613,0.68954-1.978,1.1759-2.3247,3.2614-2.3247,1.3481,0,2.9765-0.20163,3.6187-0.44806,0.98618-0.37844,1.1676,0.2525,1.1676,4.06,0,5.0081,0.31448,4.8146-6.4591,3.9741z" transform="translate(0.94139723,259.1875)" stroke-miterlimit="4" stroke-width="0" fill="#008080"/>
  <path id="path4664" d="m496.81,189.08,0-4.4291,4.4291,0,4.4291,0,0,4.4291,0,4.4291-4.4291,0-4.4291,0,0-4.4291z" transform="translate(0.94139723,259.1875)" stroke-miterlimit="4" stroke-width="0" fill="#008080"/>
  <path id="path4666" d="m525.6,189.08,0-4.4291,4.4291,0,4.4291,0,0,4.4291,0,4.4291-4.4291,0-4.4291,0,0-4.4291z" transform="translate(0.94139723,259.1875)" stroke-miterlimit="4" stroke-width="0" fill="#008080"/>
  <path id="path4670" d="m36.92,189.08,0-4.4291,4.7982,0,4.7982,0,0,4.4291,0,4.4291-4.7982,0-4.7982,0,0-4.4291z" transform="translate(0.94139723,259.1875)" stroke-miterlimit="4" stroke-width="0" fill="#FCA"/>
  <path id="path4672" d="m66.699,189.08,0-4.4291,4.4291,0,4.4291,0,0,4.4291,0,4.4291-4.4291,0-4.4291,0,0-4.4291z" transform="translate(0.94139723,259.1875)" stroke-miterlimit="4" stroke-width="0" fill="#FCA"/>
  <path id="path4674" d="m95.488,189.08,0-4.4291,4.4291,0,4.4291,0,0,4.4291,0,4.4291-4.4291,0-4.4291,0,0-4.4291z" transform="translate(0.94139723,259.1875)" stroke-miterlimit="4" stroke-width="0" fill="#FCA"/>
  <path id="path4676" d="m125.02,189.08,0-4.4291,4.4291,0,4.4291,0,0,4.4291,0,4.4291-4.4291,0-4.4291,0,0-4.4291z" transform="translate(0.94139723,259.1875)" stroke-miterlimit="4" stroke-width="0" fill="#FCA"/>
  <path id="path4678" d="m155.82,193.72c1.3104-0.16307,3.6357-0.16575,5.1673-0.006,1.5316,0.1598,0.45937,0.29322-2.3826,0.29649-2.842,0.003-4.0951-0.12747-2.7846-0.29054z" transform="translate(0.94139723,259.1875)" stroke-miterlimit="4" stroke-width="0" fill="#FCA"/>
  <path id="path4680" d="m153.8,189.08,0-4.4291,4.7982,0,4.7982,0,0,4.4291,0,4.4291-4.7982,0-4.7982,0,0-4.4291z" transform="translate(0.94139723,259.1875)" stroke-miterlimit="4" stroke-width="0" fill="#FCA"/>
  <path id="path4682" d="m183.33,189.08,0-4.4291,4.06,0,4.06,0,0,4.4291,0,4.4291-4.06,0-4.06,0,0-4.4291z" transform="translate(0.94139723,259.1875)" stroke-miterlimit="4" stroke-width="0" fill="#c8b7b7"/>
  <path id="path4684" d="m212.86,189.08,0-4.4291,4.06,0,4.06,0,0,4.4291,0,4.4291-4.06,0-4.06,0,0-4.4291z" transform="translate(0.94139723,259.1875)" stroke-miterlimit="4" stroke-width="0" fill="#c8b7b7"/>
  <path id="path4686" d="m241.65,189.08,0-4.4291,4.06,0,4.06,0,0,4.4291,0,4.4291-4.06,0-4.06,0,0-4.4291z" transform="translate(0.94139723,259.1875)" stroke-miterlimit="4" stroke-width="0" fill="#c8b7b7"/>
  <path id="path4688" d="m271.18,189.08,0-4.4291,4.06,0,4.06,0,0,4.4291,0,4.4291-4.06,0-4.06,0,0-4.4291z" transform="translate(0.94139723,259.1875)" stroke-miterlimit="4" stroke-width="0" fill="#c8b7b7"/>
  <path id="path4690" d="m299.96,189.08,0-4.4291,4.4291,0,4.4291,0,0,4.4291,0,4.4291-4.4291,0-4.4291,0,0-4.4291z" transform="translate(0.94139723,259.1875)" stroke-miterlimit="4" stroke-width="0" fill="#c8b7b7"/>
  <path id="path4692" d="m329.13,185.67c-1.7597-4.2115-1.4758-4.9948,2.3202-6.4017,1.8906-0.70068,3.5033-1.1876,3.584-1.082,0.0806,0.10562,0.67892,1.7877,1.3295,3.738l1.1829,3.546-3.3517,1.4367c-1.8434,0.7902-3.4858,1.4367-3.6497,1.4367-0.16389,0-0.80071-1.2032-1.4152-2.6738z" transform="translate(0.94139723,259.1875)" stroke-miterlimit="4" stroke-width="0" fill="#c8b7b7"/>
  <path id="path4696" d="m356.78,177.83c-0.18349-0.5075-0.81464-2.3117-1.4026-4.0093l-1.069-3.0866,4.2704-1.4421,4.2704-1.4421,1.2153,3.8554c0.66843,2.1205,1.2153,4.0442,1.2153,4.2748,0,0.42541-6.3802,2.7727-7.5365,2.7727-0.34642,0-0.77998-0.41523-0.96347-0.92273z" transform="translate(0.94139723,259.1875)" stroke-miterlimit="4" stroke-width="0" fill="#c8b7b7"/>
  <text id="text4698" style="letter-spacing:0px;word-spacing:0px;" font-weight="normal" xml:space="preserve" transform="translate(0.94139723,259.1875)" font-size="14px" font-style="normal" y="173.66196" x="33.956306" font-family="Sans" line-height="125%" fill="#000000"><tspan id="tspan4700" x="33.956306" y="173.66196"/></text>
  <path id="path4702" d="m17.095,189.08c0-2.639,0.13398-3.7186,0.29772-2.3991,0.16375,1.3195,0.16375,3.4787,0,4.7982s-0.29772,0.23991-0.29772-2.3991z" transform="translate(0.94139723,259.1875)" stroke-miterlimit="4" stroke-width="0" fill="#e0b395"/>
  <path id="path4710" d="m15.314,189.22c0.000552-2.7224,0.05605-3.7893,0.12333-2.371s0.06683,3.6457-0.001,4.9498c-0.06783,1.304-0.12288,0.14363-0.12233-2.5787z" transform="translate(0.94139723,259.1875)" stroke-miterlimit="4" stroke-width="0" fill="#e0b395"/>
  <path id="path4712" d="m15.528,189.22c0-4.7141,0.0098-4.773,0.7955-4.7728,0.78567,0.00015,0.7955,0.0591,0.7955,4.773,0,4.714-0.0098,4.7729-0.7955,4.7728-0.78567-0.00005-0.7955-0.059-0.7955-4.773z" transform="translate(0.94139723,259.1875)" stroke-miterlimit="4" stroke-width="0" fill="#e0b395"/>
  <path id="path4714" d="m15.824,191.44c-0.19883-3.7115,0.0379-6.7137,0.5168-6.554,0.58685,0.19562,0.59977,8.4505,0.01353,8.6459-0.27547,0.0918-0.45029-0.59775-0.53033-2.0919z" transform="translate(0.94139723,259.1875)" stroke-miterlimit="4" stroke-width="0" fill="#e0b395"/>
  <text id="text4716" style="letter-spacing:0px;word-spacing:0px;" font-weight="normal" xml:space="preserve" font-size="14px" font-style="normal" y="433.85303" x="20.941397" font-family="Sans" line-height="125%" fill="#000000"><tspan id="tspan4718" x="20.941397" y="433.85303">Your goal</tspan></text>
  <text id="text4722" style="letter-spacing:0px;text-anchor:middle;word-spacing:0px;text-align:center;" font-weight="normal" xml:space="preserve" transform="matrix(0.99999996,-2.7697341e-4,2.7697341e-4,0.99999996,0,0)" line-height="125%" font-size="14px" y="324.00287" x="540.85168" font-family="Sans" font-style="normal" fill="#000000"><tspan id="tspan4724" x="540.85168" y="324.00287">Implementation</tspan><tspan id="tspan4754" x="540.85168" y="341.50287">Tests</tspan><tspan id="tspan4744" x="540.85168" y="359.00287">Release</tspan><tspan id="tspan4742" x="540.85168" y="376.50287"/></text>
  <text id="text4726" style="letter-spacing:0px;word-spacing:0px;" font-weight="normal" xml:space="preserve" font-size="14px" font-style="normal" y="433.85303" x="500.94141" font-family="Sans" line-height="125%" fill="#000000"><tspan id="tspan4728" x="500.94141" y="433.85303">Your goal</tspan></text>
  <text id="text4738" style="letter-spacing:0px;word-spacing:0px;" font-weight="normal" xml:space="preserve" transform="translate(0.94139723,259.1875)" font-size="14px" font-style="normal" y="64.665543" x="177" font-family="Sans" line-height="125%" fill="#000000"><tspan id="tspan4740" x="177" y="64.665543"/></text>
  <text id="text4746" style="letter-spacing:0px;text-anchor:middle;word-spacing:0px;text-align:center;" font-weight="normal" xml:space="preserve" font-size="14px" line-height="125%" y="333.85303" x="250.94139" font-family="Sans" font-style="normal" fill="#000000"><tspan id="tspan4776" x="250.94139" y="333.85303">User&apos;s</tspan><tspan id="tspan4780" x="250.94139" y="351.35303">feedback</tspan></text>
  <text id="text4750" style="letter-spacing:0px;word-spacing:0px;" font-weight="normal" xml:space="preserve" transform="translate(0.94139723,259.1875)" font-size="14px" font-style="normal" y="171.66554" x="223" font-family="Sans" line-height="125%" fill="#000000"><tspan id="tspan4752" x="223" y="171.66554"/></text>
  <text id="text4756" style="letter-spacing:0px;word-spacing:0px;" font-weight="normal" xml:space="preserve" font-size="14px" font-style="normal" y="433.85303" x="220.94139" font-family="Sans" line-height="125%" fill="#000000"><tspan id="tspan4758" x="220.94139" y="433.85303">My plan</tspan></text>
  <text id="text4760" style="letter-spacing:0px;word-spacing:0px;" font-weight="normal" xml:space="preserve" transform="translate(0.94139723,259.1875)" font-size="14px" font-style="normal" y="171.66554" x="460" font-family="Sans" line-height="125%" fill="#000000"><tspan id="tspan4762" x="460" y="171.66554"/></text>
  <text id="text4764" style="letter-spacing:0px;word-spacing:0px;" font-weight="normal" xml:space="preserve" font-size="14px" font-style="normal" y="343.85303" x="350.94141" font-family="Sans" line-height="125%" fill="#000000"><tspan id="tspan4766" y="343.85303" x="350.94141" font-weight="bold">Prototyping</tspan></text>
  <text id="text4768" style="letter-spacing:0px;word-spacing:0px;" font-weight="normal" xml:space="preserve" transform="translate(0.94139723,259.1875)" font-size="14px" font-style="normal" y="166.66554" x="460" font-family="Sans" line-height="125%" fill="#000000"><tspan id="tspan4770"/></text>
  <text id="text4782" style="letter-spacing:0px;word-spacing:0px;" font-weight="normal" xml:space="preserve" font-size="14px" font-style="normal" y="433.85303" x="610.94141" font-family="Sans" line-height="125%" fill="#000000"><tspan id="tspan4784" x="610.94141" y="433.85303">Commercialization</tspan></text>
  <path id="path4814" stroke-linejoin="miter" style="marker-end:none;marker-start:url(#Arrow1Mstart);" d="m360.94,393.85c-27.489-13.964-42.333-45.267-17-83" stroke="#000" stroke-linecap="butt" stroke-miterlimit="4" stroke-dasharray="none" stroke-width="1.70000005" fill="none"/>
  <path id="path4816" stroke-linejoin="miter" style="marker-end:url(#Arrow1Mend);marker-start:none;marker-mid:none;" d="m430.94,393.85c25.676-11.716,38.908-42.204,17-83" stroke="#000" stroke-linecap="butt" stroke-miterlimit="4" stroke-dasharray="none" stroke-width="1.70000005" fill="none"/>
 </g>
</svg>
