<!-- Created with Inkscape (http://www.inkscape.org/) -->
<svg xmlns:inkscape="http://www.inkscape.org/namespaces/inkscape" xmlns:rdf="http://www.w3.org/1999/02/22-rdf-syntax-ns#" xmlns="http://www.w3.org/2000/svg" sodipodi:docname="curve.svg" version="1.1" xmlns:cc="http://creativecommons.org/ns#" xmlns:dc="http://purl.org/dc/elements/1.1/" inkscape:version="0.48.4 r9939" viewBox="0 0 749.55249 204.66554" xmlns:sodipodi="http://sodipodi.sourceforge.net/DTD/sodipodi-0.dtd">
 <sodipodi:namedview bordercolor="#666666" inkscape:pageshadow="2" guidetolerance="10" pagecolor="#ffffff" gridtolerance="10" inkscape:window-maximized="1" inkscape:zoom="1" objecttolerance="10" borderopacity="1" inkscape:current-layer="layer1" inkscape:cx="312.22401" inkscape:cy="140.03582" inkscape:window-y="24" inkscape:window-x="65" inkscape:window-width="1301" showgrid="true" inkscape:pageopacity="0" inkscape:window-height="744">
  <inkscape:grid type="xygrid"/>
 </sodipodi:namedview>
 <defs>
  <marker id="Arrow1Mstart" style="overflow:visible" refY="0.0" refX="0.0" orient="auto" inkscape:stockid="Arrow1Mstart">
   <path d="M0,0l5-5-17.5,5,17.5,5-5-5z" fill-rule="evenodd" transform="scale(0.4) translate(10,0)" stroke="#000000" stroke-width="1.0pt"/>
  </marker>
  <marker id="Arrow1Mend" style="overflow:visible" refY="0" refX="0" orient="auto">
   <path d="M0,0,5-5-12.5,0,5,5,0,0z" fill-rule="evenodd" transform="matrix(-0.4,0,0,-0.4,-4,0)" stroke="#000000" stroke-width="1pt"/>
  </marker>
 </defs>
 <metadata>
  <rdf:RDF>
   <cc:Work rdf:about="">
    <dc:format>image/svg+xml</dc:format>
    <dc:type rdf:resource="http://purl.org/dc/dcmitype/StillImage"/>
    <dc:title/>
   </cc:Work>
  </rdf:RDF>
 </metadata>
 <g transform="translate(-0.94139723,-259.1875)">
  <text style="letter-spacing:0px;word-spacing:0px;" line-height="125%" font-weight="normal" xml:space="preserve" transform="translate(0.94139723,259.1875)" font-size="14px" font-style="normal" y="173.66196" x="33.956306" font-family="Sans" sodipodi:linespacing="125%" fill="#000000"><tspan sodipodi:role="line" x="33.956306" y="173.66196"/></text>
  <text style="letter-spacing:0px;word-spacing:0px;" line-height="125%" font-weight="normal" xml:space="preserve" transform="translate(0.94139723,259.1875)" font-size="14px" font-style="normal" y="64.665543" x="177" font-family="Sans" sodipodi:linespacing="125%" fill="#000000"><tspan sodipodi:role="line" x="177" y="64.665543"/></text>
  <text style="letter-spacing:0px;word-spacing:0px;" line-height="125%" font-weight="normal" xml:space="preserve" transform="translate(0.94139723,259.1875)" font-size="14px" font-style="normal" y="171.66554" x="223" font-family="Sans" sodipodi:linespacing="125%" fill="#000000"><tspan sodipodi:role="line" x="223" y="171.66554"/></text>
  <text style="letter-spacing:0px;word-spacing:0px;" line-height="125%" font-weight="normal" xml:space="preserve" transform="translate(0.94139723,259.1875)" font-size="14px" font-style="normal" y="171.66554" x="460" font-family="Sans" sodipodi:linespacing="125%" fill="#000000"><tspan sodipodi:role="line" x="460" y="171.66554"/></text>
  <text style="letter-spacing:0px;word-spacing:0px;" line-height="125%" font-weight="normal" xml:space="preserve" transform="translate(0.94139723,259.1875)" font-size="14px" font-style="normal" y="166.66554" x="460" font-family="Sans" sodipodi:linespacing="125%" fill="#000000"><tspan sodipodi:role="line"/></text>
  <path stroke-linejoin="miter" style="marker-end:none;marker-start:none;marker-mid:none;" d="m16.448584,448.34585,302.542386,0c81.00903-35.98367,189.08897-40.05543,151.27118-120.16627-34.21609-85.83308-109.85167-85.83308-151.27118,0-35.41044,78.63968,87.64479,100.00125,151.27118,120.16627h264.72455" stroke-dashoffset="66.16401244" stroke="#000000" stroke-linecap="butt" stroke-miterlimit="4" stroke-dasharray="9.73,19.46" stroke-width="9.73" fill="none"/>
  <path d="m382.48705,7.7568286c-1.53692-5.915789-1.62074-5.7373006,3.04154-6.4766372,2.33619-0.37046931,4.43272-0.48848659,4.65894-0.2622606,0.22623,0.2262259,0.6035,2.2732888,0.83837,4.5490285,0.41709,4.0411789,0.38374,4.1377086-1.4294,4.1377086-1.02105,0-2.87176,0.2030617-4.11269,0.4512471-2.12272,0.424545-2.30006,0.282576-2.99676-2.3990864z" transform="translate(0.94139723,259.1875)" inkscape:connector-curvature="0" stroke-miterlimit="4" stroke-width="0" fill="#ff0000"/>
  <path d="m413.33291,12.046543-3.38072-1.234604,1.04086-4.0577006c0.57247-2.2317353,1.12396-4.140809,1.22554-4.2423861,0.30666-0.3066551,7.39627,2.1748718,8.13443,2.8472371,0.67798,0.6175499-2.33273,8.0969446-3.21193,7.9792696-0.2351-0.03147-1.94878-0.612784-3.80818-1.291816z" transform="translate(0.94139723,259.1875)" inkscape:connector-curvature="0" stroke-miterlimit="4" stroke-width="0" fill="#ff0000"/>
  <path d="m436.69044,26.354277-2.9068-2.487654,2.53771-3.367249c1.39574-1.851988,2.70379-3.363358,2.90679-3.358601,0.203,0.0048,1.85673,1.31456,3.67494,2.910674l3.30585,2.902026-2.90202,2.971944c-1.59612,1.634571-3.08375,2.959473-3.30585,2.944229-0.22211-0.01524-1.71188-1.14716-3.31062-2.515369z" transform="translate(0.94139723,259.1875)" inkscape:connector-curvature="0" stroke-miterlimit="4" stroke-width="0" fill="#ff0000"/>
  <path d="m454.07906,48.117961-2.23543-3.63304,3.73808-2.300066c2.05595-1.265036,3.82331-2.197831,3.92747-2.072879,1.00885,1.210255,4.07892,6.639091,4.07892,7.212796,0,0.407229-1.63656,1.569723-3.6368,2.583322l-3.6368,1.842908-2.23544-3.633041z" transform="translate(0.94139723,259.1875)" inkscape:connector-curvature="0" stroke-miterlimit="4" stroke-width="0" fill="#ff0000"/>
  <path d="m466.59665,73.892548c-0.89919-2.090234-1.52193-3.913387-1.38387-4.051451,0.29941-0.299407,7.23572-3.296525,7.62924-3.296525,0.42752,0,3.29515,6.725246,3.29515,7.727887,0,0.493124-1.3633,1.305045-3.02956,1.804267-1.66625,0.499223-3.44502,1.067106-3.95281,1.261963-0.56366,0.216298-1.56001-1.1259-2.55815-3.446141z" transform="translate(0.94139723,259.1875)" inkscape:connector-curvature="0" stroke-miterlimit="4" stroke-width="0" fill="#ff0000"/>
  <path d="m477.98262,105.17058c-5.56257-0.69416-5.53635-0.67023-5.53635-5.05286v-4.045925l2.76818-0.01008c1.52249-0.0055,3.51558-0.210377,4.42908-0.455185,1.60853-0.431069,1.66091-0.279438,1.66091,4.80825,0,2.88935-0.24914,5.20359-0.55364,5.14276-0.3045-0.0608-1.55018-0.23496-2.76818-0.38696z" transform="translate(0.94139723,259.1875)" inkscape:connector-curvature="0" stroke-miterlimit="4" stroke-width="0" fill="#ff0000"/>
  <path d="m462.7384,129.82409-2.63871-3.15674,2.37607-2.74871c1.30684-1.51179,2.60993-2.74871,2.89576-2.74871s1.94537,1.08859,3.68786,2.41908l3.16817,2.41907-3.06785,3.48637c-1.68732,1.91751-3.22867,3.48637-3.42522,3.48637-0.19656,0-1.5448-1.42053-2.99608-3.15673z" transform="translate(0.94139723,259.1875)" inkscape:connector-curvature="0" stroke-miterlimit="4" stroke-width="0" fill="#ff0000"/>
  <path d="m439.33434,147.92898c-0.37616-0.7105-1.18023-2.48696-1.78684-3.9477l-1.10291-2.65589,3.85462-1.89048,3.85462-1.89048,1.95493,3.98603,1.95493,3.98602-3.65505,1.85216c-4.35052,2.20457-4.2119,2.18927-5.0743,0.56034z" transform="translate(0.94139723,259.1875)" inkscape:connector-curvature="0" stroke-miterlimit="4" stroke-width="0" fill="#ff0000"/>
  <path d="m412.27369,159.37078c-1.66503-4.60518-2.45673-7.19726-2.19826-7.19726,0.16996,0,1.99851-0.66594,4.06345-1.47986l3.75444-1.47986,1.02094,2.44346c2.35277,5.63097,2.27659,5.98042-1.60716,7.37248-4.22366,1.51389-4.60013,1.5394-5.03341,0.34104z" transform="translate(0.94139723,259.1875)" inkscape:connector-curvature="0" stroke-miterlimit="4" stroke-width="0" fill="#00ff00"/>
  <path d="m358.22516,22.04998c-0.3796-0.496932-1.59361-2.120937-2.69779-3.608899l-2.00761-2.705386,3.30999-2.277333c1.82049-1.252533,3.65136-2.277333,4.06859-2.277333,1.11874,0,4.82027,6.648562,4.05689,7.286845-3.82885,3.201416-6.0982,4.409286-6.73007,3.582106z" transform="translate(0.94139723,259.1875)" inkscape:connector-curvature="0" stroke-miterlimit="4" stroke-width="0" fill="#00ff00"/>
  <path d="m335.73644,40.000895-3.41046-2.736261,2.57941-3.26091c1.41868-1.793501,2.72335-3.405416,2.89927-3.582035,0.34688-0.348269,6.2028,5.159299,6.19102,5.822746-0.004,0.222103-1.09652,1.773826-2.42797,3.448272l-2.42081,3.044449-3.41046-2.736261z" transform="translate(0.94139723,259.1875)" inkscape:connector-curvature="0" stroke-miterlimit="4" stroke-width="0" fill="#00ff00"/>
  <path d="m320.19653,64.650601c-1.9285-1.003876-3.50636-1.995996-3.50636-2.20471,0-0.208716,0.8471-2.051154,1.88244-4.094309l1.88245-3.714826,3.46936,2.00194c1.90815,1.101068,3.60874,2.120386,3.77909,2.265152,0.40935,0.347879-3.02125,7.650732-3.57317,7.606353-0.2351-0.0189-2.00532-0.855724-3.93381-1.8596z" transform="translate(0.94139723,259.1875)" inkscape:connector-curvature="0" stroke-miterlimit="4" stroke-width="0" fill="#ff0000"/>
  <path d="m411.61576,156.10201c-0.64716-1.89932-1.17666-3.529-1.17666-3.62151,0-0.16267,6.67405-2.52152,7.13431-2.52152,0.41367,0,2.46204,5.32662,2.46204,6.40235,0,1.04844-4.15235,3.19399-6.18144,3.19399-0.60436,0-1.56837-1.48733-2.23825-3.45331z" transform="translate(0.94139723,259.1875)" inkscape:connector-curvature="0" stroke-miterlimit="4" stroke-width="0" fill="#ff0000"/>
  <path d="m320.19653,64.167979c-1.5225-0.882474-2.76818-1.88462-2.76818-2.226992,0-0.895434,2.90794-6.469124,3.37511-6.469124,0.21581,0,1.71319,0.747408,3.3275,1.660907,2.5032,1.416499,2.8704,1.932469,2.49534,3.506357-0.51222,2.149472-2.34789,5.174863-3.12498,5.150307-0.29514-0.0093-1.7823-0.73898-3.30479-1.621455z" transform="translate(0.94139723,259.1875)" inkscape:connector-curvature="0" stroke-miterlimit="4" stroke-width="0" fill="#00ff00"/>
  <path d="m311.97762,92.525647-4.34345-0.224334,0.40329-4.447612c0.22182-2.446187,0.51546-4.554207,0.65256-4.684488,0.13709-0.130282,2.15834,0.0949,4.49166,0.50041l4.24241,0.737286-0.46949,4.171536c-0.25822,2.294345-0.5064,4.171537-0.55151,4.171537-0.0451,0-2.03657-0.100951-4.42547-0.224335z" transform="translate(0.94139723,259.1875)" inkscape:connector-curvature="0" stroke-miterlimit="4" stroke-width="0" fill="#00ff00"/>
  <path d="m313.03918,118.29628-2.18558-4.32961,4.13271-1.58151c2.273-0.86982,4.20976-1.49131,4.30391-1.38108,0.36389,0.426,3.30539,6.43407,3.30539,6.75132,0,0.18435-1.65844,1.35563-3.68542,2.60284l-3.68542,2.26767-2.18559-4.32963z" transform="translate(0.94139723,259.1875)" inkscape:connector-curvature="0" stroke-miterlimit="4" stroke-width="0" fill="#00ff00"/>
  <path d="m333.14478,141.61199c-1.70895-1.29615-3.12072-2.54598-3.13727-2.7774-0.0166-0.23142,1.15716-1.80779,2.60824-3.50305,2.86486-3.34696,3.06391-3.34311,7.23513,0.13997l2.12257,1.77239-2.34258,3.40482c-1.28841,1.87264-2.57575,3.38571-2.86074,3.36236-0.285-0.0233-1.91641-1.10295-3.62535-2.39909z" transform="translate(0.94139723,259.1875)" inkscape:connector-curvature="0" stroke-miterlimit="4" stroke-width="0" fill="#00ff00"/>
  <path d="m358.59389,156.92926-3.49438-1.81915,1.96153-3.99947,1.96152-3.99948,3.7474,1.8818c2.06107,1.03499,3.85278,1.9749,3.98157,2.08869,0.40134,0.35457-3.55037,7.73743-4.12206,7.70112-0.29766-0.0189-2.11367-0.85298-4.03558-1.85351z" transform="translate(0.94139723,259.1875)" inkscape:connector-curvature="0" stroke-miterlimit="4" stroke-width="0" fill="#00ff00"/>
  <path d="m413.81638,177.58269c-1.59348-0.58372-3.03599-1.20004-3.20556-1.36961s0.21757-2.11726,0.86031-4.32821l1.16862-4.0199,4.10939,1.19698c4.0991,1.19399,4.10824,1.2032,3.64961,3.67489-0.71317,3.84355-1.71361,6.01613-2.74412,5.95916-0.51755-0.0286-2.24476-0.52959-3.83825-1.11331z" transform="translate(0.94139723,259.1875)" inkscape:connector-curvature="0" stroke-miterlimit="4" stroke-width="0" fill="#00ff00"/>
  <path d="m442.05674,185.86788c-1.48927-0.46493-2.916-1.05406-3.17051-1.30917-0.59827-0.59969,1.05148-7.18224,1.93726-7.72968,0.37157-0.22964,2.34783,0.0111,4.3917,0.53488,3.69974,0.94821,3.71404,0.96346,3.24538,3.46161-1.15904,6.17823-1.6151,6.53733-6.40383,5.04236z" transform="translate(0.94139723,259.1875)" inkscape:connector-curvature="0" stroke-miterlimit="4" stroke-width="0" fill="#00ff00"/>
  <path d="m466.87941,192.5889c-0.1943-0.5075,0.0784-2.41754,0.60589-4.24453l0.95916-3.32182,3.84636-0.22312,3.84635-0.22312v4.46766,4.46766h-4.45225c-2.88127,0-4.5769-0.32558-4.80551-0.92273z" transform="translate(0.94139723,259.1875)" inkscape:connector-curvature="0" stroke-miterlimit="4" stroke-width="0" fill="#00ff00"/>
  <path d="m496.80623,189.08255,0-4.42909,4.42908,0,4.42908,0,0,4.42909,0,4.42908-4.42908,0-4.42908,0,0-4.42908z" transform="translate(0.94139723,259.1875)" inkscape:connector-curvature="0" stroke-miterlimit="4" stroke-width="0" fill="#00ff00"/>
  <path d="m525.59527,189.08255,0-4.42909,4.42908,0,4.42909,0,0,4.42909,0,4.42908-4.42909,0-4.42908,0,0-4.42908z" transform="translate(0.94139723,259.1875)" inkscape:connector-curvature="0" stroke-miterlimit="4" stroke-width="0" fill="#00ff00"/>
  <path d="m555.12249,189.08255,0-4.42909,4.42909,0,4.42908,0,0,4.42909,0,4.42908-4.42908,0-4.42909,0,0-4.42908z" transform="translate(0.94139723,259.1875)" inkscape:connector-curvature="0" stroke-miterlimit="4" stroke-width="0" fill="#ff7f2a"/>
  <path d="m583.91153,189.08255,0-4.42909,4.42909,0,4.42908,0,0,4.42909,0,4.42908-4.42908,0-4.42909,0,0-4.42908z" transform="translate(0.94139723,259.1875)" inkscape:connector-curvature="0" stroke-miterlimit="4" stroke-width="0" fill="#ff7f2a"/>
  <path d="m613.43876,189.08255,0-4.42909,4.42908,0,4.42908,0,0,4.42909,0,4.42908-4.42908,0-4.42908,0,0-4.42908z" transform="translate(0.94139723,259.1875)" inkscape:connector-curvature="0" stroke-miterlimit="4" stroke-width="0" fill="#ff7f2a"/>
  <path d="m642.2278,189.08255,0-4.42909,4.42908,0,4.42909,0,0,4.42909,0,4.42908-4.42909,0-4.42908,0,0-4.42908z" transform="translate(0.94139723,259.1875)" inkscape:connector-curvature="0" stroke-miterlimit="4" stroke-width="0" fill="#ff7f2a"/>
  <path d="m671.75502,189.08255,0-4.42909,4.42909,0,4.42908,0,0,4.42909,0,4.42908-4.42908,0-4.42909,0,0-4.42908z" transform="translate(0.94139723,259.1875)" inkscape:connector-curvature="0" stroke-miterlimit="4" stroke-width="0" fill="#ff7f2a"/>
  <path d="m700.54406,189.08255,0-4.42909,4.79818,0,4.79817,0,0,4.42909,0,4.42908-4.79817,0-4.79818,0,0-4.42908z" transform="translate(0.94139723,259.1875)" inkscape:connector-curvature="0" stroke-miterlimit="4" stroke-width="0" fill="#ff7f2a"/>
  <path d="m730.07129,189.08255c0-4.23224,0.082-4.42909,1.84545-4.42909,1.76343,0,1.84545,0.19685,1.84545,4.42909,0,4.23223-0.082,4.42908-1.84545,4.42908-1.76343,0-1.84545-0.19685-1.84545-4.42908z" transform="translate(0.94139723,259.1875)" inkscape:connector-curvature="0" stroke-miterlimit="4" stroke-width="0" fill="#ff7f2a"/>
  <path d="m328.46371,184.93053c-0.89761-2.21156-1.50555-4.11527-1.35097-4.23046,0.15458-0.1152,2.0103-0.9092,4.12384-1.76445l3.84279-1.555,1.53498,4.10258c0.84423,2.25642,1.44025,4.16509,1.32447,4.24148-0.11578,0.0764-1.92784,0.83369-4.0268,1.68289l-3.81629,1.54399-1.63202-4.02103z" transform="translate(0.94139723,259.1875)" inkscape:connector-curvature="0" stroke-miterlimit="4" stroke-width="0" fill="#000080"/>
  <path d="m301.72555,193.71704c1.31044-0.16307,3.63571-0.16575,5.16726-0.006,1.53155,0.1598,0.45937,0.29322-2.38262,0.29649-2.842,0.003-4.09508-0.12747-2.78464-0.29054z" transform="translate(0.94139723,259.1875)" inkscape:connector-curvature="0" stroke-miterlimit="4" stroke-width="0" fill="#000080"/>
  <path d="m299.71202,189.08255,0-4.42909,4.79817,0,4.79817,0,0,4.42909,0,4.42908-4.79817,0-4.79817,0,0-4.42908z" transform="translate(0.94139723,259.1875)" inkscape:connector-curvature="0" stroke-miterlimit="4" stroke-width="0" fill="#000080"/>
  <path d="m270.92297,189.08255,0-4.42909,4.42909,0,4.42908,0,0,4.42909,0,4.42908-4.42908,0-4.42909,0,0-4.42908z" transform="translate(0.94139723,259.1875)" inkscape:connector-curvature="0" stroke-miterlimit="4" stroke-width="0" fill="#000080"/>
  <path d="m241.39575,189.08255,0-4.42909,4.42908,0,4.42909,0,0,4.42909,0,4.42908-4.42909,0-4.42908,0,0-4.42908z" transform="translate(0.94139723,259.1875)" inkscape:connector-curvature="0" stroke-miterlimit="4" stroke-width="0" fill="#000080"/>
  <path d="m212.60671,189.08255,0-4.42909,4.42908,0,4.42908,0,0,4.42909,0,4.42908-4.42908,0-4.42908,0,0-4.42908z" transform="translate(0.94139723,259.1875)" inkscape:connector-curvature="0" stroke-miterlimit="4" stroke-width="0" fill="#000080"/>
  <path d="m183.07949,189.08255,0-4.42909,4.42908,0,4.42908,0,0,4.42909,0,4.42908-4.42908,0-4.42908,0,0-4.42908z" transform="translate(0.94139723,259.1875)" inkscape:connector-curvature="0" stroke-miterlimit="4" stroke-width="0" fill="#000080"/>
  <path d="m413.76091,177.11232c-2.97095-1.04772-2.86407-0.76185-1.85601-4.96392,0.84396-3.51798,1.00356-3.7001,2.85137-3.25357,5.55561,1.34256,6.08661,2.14942,4.46879,6.79031-0.86519,2.48188-1.7891,2.72319-5.46415,1.42718z" transform="translate(0.94139723,259.1875)" inkscape:connector-curvature="0" stroke-miterlimit="4" stroke-width="0" fill="#008080"/>
  <path d="m441.25814,185.27185c-2.22864-0.81397-2.48427-2.04767-1.19226-5.75392,0.80298-2.30346,0.96079-2.38345,3.80503-1.92863,1.63202,0.26097,3.24813,0.64804,3.59136,0.86017,0.85393,0.52776,0.78266,2.57595-0.18635,5.35566-0.87395,2.50701-2.25072,2.84257-6.01778,1.46672z" transform="translate(0.94139723,259.1875)" inkscape:connector-curvature="0" stroke-miterlimit="4" stroke-width="0" fill="#008080"/>
  <path d="m469.67809,192.97763c-2.657-0.32973-2.95909-1.33016-1.58869-5.26129,0.68954-1.97801,1.17592-2.3247,3.26144-2.3247,1.34807,0,2.97648-0.20163,3.61869-0.44806,0.98618-0.37844,1.16764,0.2525,1.16764,4.05999,0,5.00814,0.31448,4.81465-6.45908,3.97406z" transform="translate(0.94139723,259.1875)" inkscape:connector-curvature="0" stroke-miterlimit="4" stroke-width="0" fill="#008080"/>
  <path d="m496.80623,189.08255,0-4.42909,4.42908,0,4.42908,0,0,4.42909,0,4.42908-4.42908,0-4.42908,0,0-4.42908z" transform="translate(0.94139723,259.1875)" inkscape:connector-curvature="0" stroke-miterlimit="4" stroke-width="0" fill="#008080"/>
  <path d="m525.59527,189.08255,0-4.42909,4.42908,0,4.42909,0,0,4.42909,0,4.42908-4.42909,0-4.42908,0,0-4.42908z" transform="translate(0.94139723,259.1875)" inkscape:connector-curvature="0" stroke-miterlimit="4" stroke-width="0" fill="#008080"/>
  <path d="m36.919732,189.08255,0-4.42909,4.798174,0,4.798174,0,0,4.42909,0,4.42908-4.798174,0-4.798174,0,0-4.42908z" transform="translate(0.94139723,259.1875)" inkscape:connector-curvature="0" stroke-miterlimit="4" stroke-width="0" fill="#ffccaa"/>
  <path d="m66.699223,189.08255,0-4.42909,4.429083,0,4.429083,0,0,4.42909,0,4.42908-4.429083,0-4.429083,0,0-4.42908z" transform="translate(0.94139723,259.1875)" inkscape:connector-curvature="0" stroke-miterlimit="4" stroke-width="0" fill="#ffccaa"/>
  <path d="m95.488265,189.08255,0-4.42909,4.429083,0,4.429082,0,0,4.42909,0,4.42908-4.429082,0-4.429083,0,0-4.42908z" transform="translate(0.94139723,259.1875)" inkscape:connector-curvature="0" stroke-miterlimit="4" stroke-width="0" fill="#ffccaa"/>
  <path d="m125.01549,189.08255,0-4.42909,4.42908,0,4.42908,0,0,4.42909,0,4.42908-4.42908,0-4.42908,0,0-4.42908z" transform="translate(0.94139723,259.1875)" inkscape:connector-curvature="0" stroke-miterlimit="4" stroke-width="0" fill="#ffccaa"/>
  <path d="m155.81806,193.71704c1.31044-0.16307,3.63571-0.16575,5.16727-0.006,1.53155,0.1598,0.45937,0.29322-2.38263,0.29649-2.84199,0.003-4.09508-0.12747-2.78464-0.29054z" transform="translate(0.94139723,259.1875)" inkscape:connector-curvature="0" stroke-miterlimit="4" stroke-width="0" fill="#ffccaa"/>
  <path d="m153.80453,189.08255,0-4.42909,4.79817,0,4.79818,0,0,4.42909,0,4.42908-4.79818,0-4.79817,0,0-4.42908z" transform="translate(0.94139723,259.1875)" inkscape:connector-curvature="0" stroke-miterlimit="4" stroke-width="0" fill="#ffccaa"/>
  <path d="m183.33175,189.08255,0-4.42909,4.06,0,4.05999,0,0,4.42909,0,4.42908-4.05999,0-4.06,0,0-4.42908z" transform="translate(0.94139723,259.1875)" inkscape:connector-curvature="0" stroke-miterlimit="4" stroke-width="0" fill="#c8b7b7"/>
  <path d="m212.85898,189.08255,0-4.42909,4.05999,0,4.05999,0,0,4.42909,0,4.42908-4.05999,0-4.05999,0,0-4.42908z" transform="translate(0.94139723,259.1875)" inkscape:connector-curvature="0" stroke-miterlimit="4" stroke-width="0" fill="#c8b7b7"/>
  <path d="m241.64802,189.08255,0-4.42909,4.05999,0,4.05999,0,0,4.42909,0,4.42908-4.05999,0-4.05999,0,0-4.42908z" transform="translate(0.94139723,259.1875)" inkscape:connector-curvature="0" stroke-miterlimit="4" stroke-width="0" fill="#c8b7b7"/>
  <path d="m271.17524,189.08255,0-4.42909,4.05999,0,4.06,0,0,4.42909,0,4.42908-4.06,0-4.05999,0,0-4.42908z" transform="translate(0.94139723,259.1875)" inkscape:connector-curvature="0" stroke-miterlimit="4" stroke-width="0" fill="#c8b7b7"/>
  <path d="m299.96428,189.08255,0-4.42909,4.42909,0,4.42908,0,0,4.42909,0,4.42908-4.42908,0-4.42909,0,0-4.42908z" transform="translate(0.94139723,259.1875)" inkscape:connector-curvature="0" stroke-miterlimit="4" stroke-width="0" fill="#c8b7b7"/>
  <path d="m329.13232,185.67058c-1.75967-4.21149-1.47576-4.99485,2.32019-6.40173,1.89055-0.70068,3.50333-1.18756,3.58397-1.08195,0.0806,0.10562,0.67892,1.78773,1.32952,3.73803l1.1829,3.54601-3.35172,1.43671c-1.84344,0.7902-3.4858,1.43672-3.6497,1.43672-0.16389,0-0.80071-1.20321-1.41516-2.67379z" transform="translate(0.94139723,259.1875)" inkscape:connector-curvature="0" stroke-miterlimit="4" stroke-width="0" fill="#c8b7b7"/>
  <path d="m356.77974,177.82529c-0.18349-0.5075-0.81464-2.31169-1.40257-4.00932l-1.06895-3.08659,4.27041-1.44214,4.27041-1.44214,1.21532,3.85543c0.66843,2.12049,1.21532,4.04415,1.21532,4.2748,0,0.42541-6.38016,2.77269-7.53647,2.77269-0.34642,0-0.77998-0.41523-0.96347-0.92273z" transform="translate(0.94139723,259.1875)" inkscape:connector-curvature="0" stroke-miterlimit="4" stroke-width="0" fill="#c8b7b7"/>
  <path d="m17.094725,189.08255c0-2.639,0.133976-3.71859,0.297724-2.39909s0.163748,3.47868,0,4.79817c-0.163748,1.3195-0.297724,0.23991-0.297724-2.39908z" transform="translate(0.94139723,259.1875)" inkscape:connector-curvature="0" stroke-miterlimit="4" stroke-width="0" fill="#e0b395"/>
  <path d="m15.313975,189.2152c0.000552-2.72237,0.05605-3.78932,0.123331-2.37102,0.06728,1.4183,0.06683,3.64569-0.001,4.94975-0.06783,1.30405-0.122879,0.14363-0.122328-2.57873z" transform="translate(0.94139723,259.1875)" inkscape:connector-curvature="0" stroke-miterlimit="4" stroke-width="0" fill="#e0b395"/>
  <path d="m15.528032,189.2152c0-4.7141,0.0098-4.77297,0.795495-4.77282,0.785666,0.00015,0.795495,0.0591,0.795495,4.77303,0,4.71396-0.0098,4.77287-0.795495,4.77281-0.785672-0.00005-0.795495-0.059-0.795495-4.77302z" transform="translate(0.94139723,259.1875)" inkscape:connector-curvature="0" stroke-miterlimit="4" stroke-width="0" fill="#e0b395"/>
  <path d="m15.824211,191.44403c-0.19883-3.71146,0.0379-6.71367,0.5168-6.55404,0.586851,0.19562,0.599769,8.45048,0.01353,8.6459-0.275468,0.0918-0.450288-0.59775-0.53033-2.09186z" transform="translate(0.94139723,259.1875)" inkscape:connector-curvature="0" stroke-miterlimit="4" stroke-width="0" fill="#e0b395"/>
  <text style="letter-spacing:0px;word-spacing:0px;" line-height="125%" font-weight="normal" sodipodi:linespacing="125%" font-size="14px" font-style="normal" y="433.85303" x="20.941397" font-family="Sans" xml:space="preserve" fill="#000000"><tspan y="433.85303" x="20.941397" sodipodi:role="line">Twój cel</tspan></text>
  <text style="letter-spacing:0px;text-anchor:middle;word-spacing:0px;text-align:center;" font-weight="normal" inkscape:transform-center-x="19.143638" inkscape:transform-center-y="18.906101" transform="matrix(0.99999996,-2.7697341e-4,2.7697341e-4,0.99999996,0,0)" xml:space="preserve" line-height="125%" font-size="14px" font-style="normal" y="324.00287" x="540.85168" font-family="Sans" sodipodi:linespacing="125%" fill="#000000"><tspan y="324.00287" x="540.85168" sodipodi:role="line">Implementacja</tspan><tspan y="341.50287" x="540.85168" sodipodi:role="line">Testy</tspan><tspan y="359.00287" x="540.85168" sodipodi:role="line">Wydanie</tspan><tspan y="376.50287" x="540.85168" sodipodi:role="line"/></text>
  <text style="letter-spacing:0px;word-spacing:0px;" line-height="125%" font-weight="normal" sodipodi:linespacing="125%" font-size="14px" font-style="normal" y="433.85303" x="500.94141" font-family="Sans" xml:space="preserve" fill="#000000"><tspan y="433.85303" x="500.94141" sodipodi:role="line">Twój cel</tspan></text>
  <text style="letter-spacing:0px;text-anchor:middle;word-spacing:0px;text-align:center;" font-weight="normal" sodipodi:linespacing="125%" font-size="14px" line-height="125%" font-style="normal" y="333.85303" x="250.94139" font-family="Sans" xml:space="preserve" fill="#000000"><tspan y="333.85303" x="250.94139" sodipodi:role="line">Opinia</tspan><tspan y="351.35303" x="250.94139" sodipodi:role="line">Użytkownika</tspan></text>
  <text style="letter-spacing:0px;word-spacing:0px;" line-height="125%" font-weight="normal" sodipodi:linespacing="125%" font-size="14px" font-style="normal" y="433.85303" x="220.94139" font-family="Sans" xml:space="preserve" fill="#000000"><tspan y="433.85303" x="220.94139" sodipodi:role="line">Mój plan</tspan></text>
  <text style="letter-spacing:0px;word-spacing:0px;" line-height="125%" font-weight="normal" sodipodi:linespacing="125%" font-size="14px" font-style="normal" y="343.85303" x="360.94141" font-family="Sans" xml:space="preserve" fill="#000000"><tspan sodipodi:role="line" y="343.85303" x="360.94141" font-weight="bold">Prototyp</tspan></text>
  <text style="letter-spacing:0px;word-spacing:0px;" line-height="125%" font-weight="normal" sodipodi:linespacing="125%" font-size="14px" font-style="normal" y="433.85303" x="610.94141" font-family="Sans" xml:space="preserve" fill="#000000"><tspan y="433.85303" x="610.94141" sodipodi:role="line">Komercjalizacja</tspan></text>
  <path stroke-linejoin="miter" style="marker-end:none;marker-start:url(#Arrow1Mstart);" d="m360.9414,393.85304c-27.48852-13.9635-42.33279-45.26691-17-83" sodipodi:nodetypes="cc" inkscape:connector-curvature="0" stroke="#000000" stroke-linecap="butt" stroke-miterlimit="4" stroke-dasharray="none" stroke-width="1.70000005" fill="none"/>
  <path stroke-linejoin="miter" style="marker-end:url(#Arrow1Mend);marker-start:none;marker-mid:none;" d="m430.9414,393.85304c25.67637-11.71629,38.90836-42.20415,17-83" sodipodi:nodetypes="cc" inkscape:connector-curvature="0" stroke="#000000" stroke-linecap="butt" stroke-miterlimit="4" stroke-dasharray="none" stroke-width="1.70000005" fill="none"/>
 </g>
</svg>
